<svg version="1.0" xmlns="http://www.w3.org/2000/svg"
    width="64.000000pt" height="64.000000pt" viewBox="0 0 64.000000 64.000000"
    preserveAspectRatio="xMidYMid meet">

    <g transform="translate(0.000000,64.000000) scale(0.100000,-0.100000)"
        fill="#000000" stroke="none">
        <path
            d="M60 540 c-19 -19 -20 -33 -20 -220 0 -187 1 -201 20 -220 19 -19 33
-20 260 -20 227 0 241 1 260 20 19 19 20 33 20 220 0 187 -1 201 -20 220 -19
19 -33 20 -260 20 -227 0 -241 -1 -260 -20z m498 -140 l3 -115 -48 48 c-46 44
-75 56 -99 39 -5 -4 -36 -40 -68 -80 l-58 -72 -44 40 c-24 22 -52 40 -63 40
-11 0 -38 -21 -60 -47 l-41 -48 0 151 c0 83 3 154 7 158 4 3 110 5 237 4 l231
-3 3 -115z m-50 -113 c52 -53 53 -55 50 -108 l-3 -54 -142 -3 c-79 -1 -143 0
-143 3 0 13 164 215 175 215 6 0 34 -24 63 -53z m-279 -61 c35 -36 35 -43 -2
-83 -17 -19 -31 -23 -78 -23 -32 0 -60 3 -62 8 -7 10 84 132 98 132 6 0 26
-15 44 -34z" />
        <path
            d="M200 460 c-11 -11 -20 -29 -20 -40 0 -26 34 -60 60 -60 26 0 60 34
60 60 0 11 -9 29 -20 40 -11 11 -29 20 -40 20 -11 0 -29 -9 -40 -20z m56 -31
c10 -17 -13 -36 -27 -22 -12 12 -4 33 11 33 5 0 12 -5 16 -11z" />
    </g>
</svg>